PathFileType	4	(X/Y/Z)	C:\Users\Basilio\Documents\Thesis Gigler\squatting_fais\c3dfiles\047\SLS_pre_back5\markers_experimental.trc
DataRate	CameraRate	NumFrames	NumMarkers	Units	OrigDataRate	OrigDataStartFrame	OrigNumFrames
200.000000	200.000000	4	62	mm	200.000000	0	1304
Frame#	Time	FHD			LBHD			RBHD			C7			T10			CLAV			LSHO			LUUPA			LMUPA			LDUPA			LLEP			LMEP			LRAD			LUL			LRFIN			RSHO			RUPA1			RMUPA			RDUPA			RLEP			RMEP			RRAD			RUFIN			LASI			RASI			USACR			LSACR			RSACR			LTHI1			LTHI2			LTHI3			LTHI4			LLFC			LMFC			LTIB1			LTIB2			LTIB3			LTIB4			LLMAL			LMMAL			LMT1			LMT2			LMT5			RTHI			RTHI2			RTHI3			RTHI4			RLFC			RMFC			RTIB1			RTIB2			RTIB3			RTIB4			RLMAL			RMMAL			RHEE			RMT1			RMT2			RMT5			RUL			*60			*61			
		X1	Y1	Z1	X2	Y2	Z2	X3	Y3	Z3	X4	Y4	Z4	X5	Y5	Z5	X6	Y6	Z6	X7	Y7	Z7	X8	Y8	Z8	X9	Y9	Z9	X10	Y10	Z10	X11	Y11	Z11	X12	Y12	Z12	X13	Y13	Z13	X14	Y14	Z14	X15	Y15	Z15	X16	Y16	Z16	X17	Y17	Z17	X18	Y18	Z18	X19	Y19	Z19	X20	Y20	Z20	X21	Y21	Z21	X22	Y22	Z22	X23	Y23	Z23	X24	Y24	Z24	X25	Y25	Z25	X26	Y26	Z26	X27	Y27	Z27	X28	Y28	Z28	X29	Y29	Z29	X30	Y30	Z30	X31	Y31	Z31	X32	Y32	Z32	X33	Y33	Z33	X34	Y34	Z34	X35	Y35	Z35	X36	Y36	Z36	X37	Y37	Z37	X38	Y38	Z38	X39	Y39	Z39	X40	Y40	Z40	X41	Y41	Z41	X42	Y42	Z42	X43	Y43	Z43	X44	Y44	Z44	X45	Y45	Z45	X46	Y46	Z46	X47	Y47	Z47	X48	Y48	Z48	X49	Y49	Z49	X50	Y50	Z50	X51	Y51	Z51	X52	Y52	Z52	X53	Y53	Z53	X54	Y54	Z54	X55	Y55	Z55	X56	Y56	Z56	X57	Y57	Z57	X58	Y58	Z58	X59	Y59	Z59	X60	Y60	Z60	X61	Y61	Z61	X62	Y62	Z62	

1	0	-182.134994506836	1745.025634765625	-1131.990966796875	-356.2076721191407	1689.316650390625	-1151.626098632813	-330.5910949707032	1701.984619140625	-1005.662048339844	-361.1331787109376	1517.790161132813	-1069.301391601563	-374.2750854492188	1210.326049804688	-1030.2294921875	-215.2640380859376	1459.224365234375	-1103.47412109375	-303.7763366699219	1465.606201171875	-1250.647216796875	-246.7954101562501	1313.578979492188	-1349.12353515625	-203.195541381836	1340.060180664063	-1353.454345703125	-185.30859375	1284.918334960938	-1366.57421875	-112.9939193725586	1272.688598632813	-1378.869506835938	-122.5550308227539	1223.069702148438	-1309.156127929688	34.33334732055665	1409.745239257813	-1217.604370117188	79.61006164550783	1349.121215820313	-1215.045043945313	123.7524185180664	1429.008422851563	-1223.348999023438	-235.5409545898438	1497.213500976563	-941.2327270507815	-127.9064636230469	1357.229370117188	-850.6933593750002	-91.22238922119142	1378.196166992188	-874.218933105469	-65.42081451416017	1326.092651367188	-860.0338134765627	4.800997257232667	1312.62744140625	-885.3072509765627	-29.07325744628907	1245.536743164063	-936.8245239257815	137.8983917236328	1360.106079101563	-1108.187866210938	109.1194305419922	1444.721069335938	-1132.458129882813	-212.0335693359376	980.7723388671877	-1124.058715820313	-195.8012390136719	1005.499206542969	-895.192077636719	-382.0402526855469	1079.958618164063	-1008.537536621094	-390.6426696777345	1046.324584960938	-1033.066528320313	-385.2173156738282	1051.957397460938	-975.2856445312502	-303.8372802734376	828.9082031250002	-1178.493774414063	-272.3196411132813	750.4048461914064	-1176.645874023438	-223.5196838378907	752.1748657226564	-1164.994873046875	-303.2602844238282	698.2461547851564	-1167.96435546875	-335.3101501464844	528.5457153320314	-1124.13671875	-299.9693603515626	521.5045166015626	-1004.715637207031	-300.8931579589844	347.1998901367188	-1027.126098632813	-313.5762939453126	298.8220520019532	-1099.881591796875	-294.4728393554688	297.9295349121094	-1055.747680664063	-304.1385803222657	221.9571228027344	-1022.620422363281	-354.9361877441407	123.5676422119141	-1060.518798828125	-329.6595764160157	140.4459838867188	-976.828552246094	-210.2404022216797	64.3485565185547	-993.7010498046877	-209.3795623779297	60.68246459960939	-1038.348754882813	-259.6342468261719	47.49281311035157	-1081.735107421875	-261.3532104492188	833.1638793945315	-778.2044067382815	-215.234603881836	785.2009277343752	-768.5947875976565	-185.4309692382813	787.914489746094	-781.161071777344	-230.9359436035157	703.6463012695314	-754.3507690429689	-215.3628234863282	571.3079833984376	-755.3651733398439	-210.2659606933594	530.4295654296876	-878.9746093750002	-300.3014526367188	480.2562255859376	-748.2820434570314	-398.4353942871095	520.2484741210939	-718.8122558593751	-381.9296569824219	476.2273864746095	-720.2629394531251	-424.4329223632814	441.4379272460939	-745.3163452148439	-587.7604370117189	457.5354614257814	-715.2656250000001	-564.9895629882814	411.5841369628907	-792.2113037109377	-616.6763916015626	495.133026123047	-782.2669677734377	-629.4957275390626	289.5220947265626	-752.5681762695314	-630.3417968750001	293.3055419921876	-707.2111816406251	-665.4279174804689	350.8667297363282	-669.6992187500001	nan	nan	nan	nan	nan	nan	nan	nan	nan	
2	0.005	-182.1399230957032	1744.984497070313	-1131.964477539063	-356.2429809570313	1689.321044921875	-1151.57958984375	-330.5929870605469	1702.00146484375	-1005.66162109375	-361.1552429199219	1517.764038085938	-1069.233764648438	-373.9185791015626	1210.970825195313	-1030.144287109375	-215.2669067382813	1459.240356445313	-1103.473388671875	-303.8869323730469	1465.608764648438	-1250.58154296875	-246.8142089843751	1313.601318359375	-1349.099975585938	-203.1949005126954	1340.058837890625	-1353.457397460938	-185.3399963378907	1284.904907226563	-1366.543701171875	-113.0355300903321	1272.744140625	-1378.880493164063	-122.6630020141602	1223.150634765625	-1309.242065429688	34.29466247558594	1409.808471679688	-1217.635864257813	79.53205871582033	1349.216430664063	-1215.08935546875	123.7474517822266	1429.078125	-1223.351684570313	-235.5945281982422	1497.2109375	-941.210632324219	-127.9064636230469	1357.229370117188	-850.6933593750002	-91.29038238525392	1378.175048828125	-874.2266845703127	-65.49842834472658	1326.072021484375	-860.0489501953127	4.752393245697022	1312.64599609375	-885.3947753906252	-29.11187553405762	1245.534057617188	-936.9395751953127	137.8968811035157	1360.146362304688	-1108.235107421875	109.1137161254883	1444.786743164063	-1132.487426757813	-211.9972229003907	980.799255371094	-1123.985229492188	-195.8205871582032	1005.509216308594	-895.1328125000002	-382.0682067871094	1079.9384765625	-1008.46728515625	-390.6058654785157	1046.3212890625	-1033.019653320313	-385.1675109863282	1051.952758789063	-975.2700805664065	-303.8301391601563	828.9035644531252	-1178.452026367188	-272.3381042480469	750.3613281250001	-1176.613525390625	-223.5198974609376	752.1902465820314	-1164.9794921875	-303.2474060058594	698.2089233398439	-1167.949340820313	-335.3101501464844	528.5457153320314	-1124.13671875	-299.9678955078126	521.5133056640626	-1004.62060546875	-300.8842468261719	347.1813659667969	-1027.027465820313	-313.6783142089844	298.7902221679688	-1099.780151367188	-294.7447509765626	299.0202026367188	-1056.632568359375	-304.2101135253907	221.8973846435547	-1022.505798339844	-354.9540100097657	123.5836791992188	-1060.516723632813	-329.6423950195313	140.4273071289063	-976.7869873046877	-210.1871032714844	64.33604431152345	-993.692565917969	-210.8933715820313	60.33016204833986	-1038.525756835938	-259.6476440429688	47.54540252685548	-1081.729125976563	-261.3521728515626	833.132019042969	-778.1044921875002	-215.2088165283204	785.1860351562502	-768.4760742187502	-185.3494110107422	787.9443969726565	-781.0628662109377	-230.915512084961	703.6519165039064	-754.2861328125001	-215.2898101806641	571.2698974609376	-755.2943115234376	-210.1412658691407	530.4329223632814	-878.8728027343752	-300.1375122070313	480.2452392578126	-748.1893310546876	-398.3105468750001	520.1636962890626	-718.7554931640626	-381.8464965820313	476.1753540039064	-720.1417846679689	-424.3625488281251	441.3182067871095	-745.3071899414064	-587.5936279296876	457.3945312500001	-715.2695922851564	-564.8926391601564	411.5201721191407	-792.1118774414065	-616.5743408203126	495.0436096191407	-782.1848754882815	-629.3337402343751	289.4274902343751	-752.5526123046876	-630.2440795898439	293.2139892578126	-707.1585083007814	-665.2896728515626	350.6958007812501	-669.6635742187501	nan	nan	nan	nan	nan	nan	nan	nan	nan	
3	0.01	-182.0713195800782	1744.9296875	-1131.906616210938	-356.2565307617188	1689.367919921875	-1151.572021484375	-330.6239013671876	1702.022094726563	-1005.586059570313	-361.1736450195313	1517.714477539063	-1069.201049804688	-374.2243652343751	1210.308349609375	-1030.123779296875	-215.3731994628907	1459.210571289063	-1103.383178710938	-303.8771362304688	1465.611083984375	-1250.552612304688	-246.9320068359376	1313.648681640625	-1349.038818359375	-203.2957611083985	1340.098388671875	-1353.421508789063	-185.4546508789063	1284.972290039063	-1366.536010742188	-113.1461563110352	1272.755493164063	-1378.88818359375	-122.7084884643555	1223.2001953125	-1309.129516601563	34.27124404907227	1409.8486328125	-1217.684448242188	79.54504394531251	1349.27294921875	-1215.1005859375	123.7042999267578	1429.118896484375	-1223.390014648438	-235.6936340332032	1497.196899414063	-941.1030883789065	-127.9538497924805	1357.212646484375	-850.7346191406252	-91.27620697021486	1378.188232421875	-874.2553710937502	-65.54185485839845	1326.05859375	-860.0964355468752	4.760400295257569	1312.665161132813	-885.403503417969	-29.18914604187012	1245.538940429688	-936.8909912109377	137.8524322509766	1360.148681640625	-1108.277465820313	109.0287399291992	1444.773071289063	-1132.503295898438	-211.9896240234376	980.7977294921877	-1123.932373046875	-195.8457336425782	1005.510375976563	-895.0092773437502	-381.9855957031251	1079.921875	-1008.427429199219	-390.5605773925782	1046.318237304688	-1032.9921875	-385.1396484375001	1051.949096679688	-975.2141723632815	-303.8199157714844	828.9029541015627	-1178.400390625	-272.3563842773438	750.3379516601564	-1176.55322265625	-223.5060577392579	752.1701049804689	-1164.9130859375	-303.2479553222657	698.2376098632814	-1167.904174804688	-335.2324523925782	528.5652465820314	-1124.067016601563	-299.9867248535157	521.4473266601564	-1004.609497070313	-300.8532714843751	347.1962585449219	-1026.94580078125	-313.6140747070313	298.7311706542969	-1099.750854492188	-294.7478637695313	299.0200805664063	-1056.537719726563	-304.1458435058594	221.8994293212891	-1022.420166015625	-355.0155639648438	123.5800247192383	-1060.482788085938	-329.6360778808594	140.4433288574219	-976.7173461914065	-210.2352752685547	64.3213348388672	-993.7078247070315	-209.2913208007813	60.72066116333009	-1038.275146484375	-259.6713867187501	47.53666305541993	-1081.735229492188	-261.3042907714844	833.1289672851565	-778.0377197265627	-215.1825714111329	785.2198486328127	-768.3975830078127	-185.3089141845703	787.9392089843752	-780.967712402344	-230.8323364257813	703.6463623046876	-754.1604003906251	-215.0962524414063	571.2060546875001	-755.2247924804689	-209.8181762695313	529.8862915039064	-878.923767089844	-300.0263061523438	480.1897583007814	-748.1233520507814	-398.2138061523439	520.0994873046876	-718.6671142578126	-381.7696533203126	476.127410888672	-720.0480957031251	-424.1941528320314	441.2118225097657	-745.2312622070314	-587.5150146484376	457.3098449707032	-715.1914062500001	-564.7999877929689	411.4029846191407	-792.0660400390627	-616.5194702148439	494.934783935547	-782.0920410156252	-629.1387329101564	289.3144836425782	-752.6155395507814	-630.1902465820314	292.8667602539063	-706.9736938476564	-665.1049804687501	350.4870300292969	-669.6975097656251	nan	nan	nan	nan	nan	nan	nan	nan	nan	
4	0.015	-182.0370025634766	1744.910400390625	-1131.87353515625	-356.2668762207032	1689.376220703125	-1151.537353515625	-330.5801696777344	1702.064453125	-1005.602233886719	-361.2457885742188	1517.694213867188	-1069.166748046875	-373.7987365722657	1210.92041015625	-1030.036499023438	-215.3674926757813	1459.265014648438	-1103.3505859375	-303.9470520019532	1465.611938476563	-1250.48779296875	-246.9363861083985	1313.662353515625	-1349.025146484375	-203.3395538330079	1340.132080078125	-1353.3916015625	-185.5220947265625	1285.028076171875	-1366.499877929688	-113.1657485961914	1272.846923828125	-1378.909912109375	-122.8169403076172	1223.280883789063	-1309.2158203125	34.19430923461915	1409.8984375	-1217.674072265625	79.53860473632814	1349.275024414063	-1215.168334960938	123.6528549194336	1429.202026367188	-1223.43359375	-235.861068725586	1497.203369140625	-941.005554199219	-128.0180816650391	1357.18115234375	-850.7416992187502	-91.30710601806642	1378.18310546875	-874.2283325195315	-65.55215454101564	1326.022583007813	-860.0977783203127	4.695425510406495	1312.651733398438	-885.4448852539065	-29.22453117370606	1245.509399414063	-937.015075683594	137.8762512207032	1360.220947265625	-1108.294677734375	108.9996643066407	1444.84912109375	-1132.509033203125	-211.9393463134766	980.7878417968752	-1123.876831054688	-195.8455963134766	1005.515014648438	-894.9340820312502	-381.9696044921876	1079.95703125	-1008.36962890625	-390.524383544922	1046.330078125	-1032.91259765625	-385.0716247558595	1051.906372070313	-975.1672973632815	-303.8276062011719	828.8992919921877	-1178.375366210938	-272.3078613281251	750.3587646484376	-1176.492431640625	-223.4335632324219	752.1621704101564	-1164.88232421875	-303.2308959960938	698.2127685546876	-1167.831909179688	-335.1623535156251	528.5405273437501	-1124.0517578125	-299.9677734375001	521.4618530273439	-1004.496765136719	-300.8399963378907	347.1384582519532	-1026.973754882813	-313.6022033691407	298.7304687500001	-1099.693603515625	-294.3200378417969	297.9167480468751	-1055.539916992188	-304.1821289062501	221.8577270507813	-1022.33349609375	-354.9321899414063	123.6151199340821	-1060.429809570313	-329.6612854003907	140.4300994873047	-976.6743164062502	-210.2114410400391	64.3277053833008	-993.641296386719	-209.2911682128907	60.72080612182619	-1038.275268554688	-259.6728210449219	47.53215408325196	-1081.70703125	-261.2903442382813	833.1392822265627	-777.9495239257815	-215.2052612304688	785.3774414062502	-768.5691528320315	-185.2415466308594	787.963073730469	-780.9136962890627	-230.7565612792969	703.6577758789064	-754.1402587890626	-215.0502166748047	571.1992797851564	-755.1419677734376	-209.7506561279297	529.8628540039064	-878.8552856445315	-299.9332580566407	480.1899414062501	-748.0657348632814	-398.0846557617189	520.0439453125001	-718.6407470703126	-381.6296081542969	476.0719604492189	-720.0244750976564	-424.0706787109376	441.110565185547	-745.2127075195314	-587.4134521484376	457.1386108398439	-715.1290893554689	-564.7070312500001	411.285858154297	-792.020202636719	-616.4171142578126	494.8402404785157	-782.034851074219	-629.1308593750001	289.0334777832032	-752.6193847656251	-630.1426391601564	292.7778015136719	-706.9061279296876	-665.0154418945314	350.3770751953126	-669.6390991210939	nan	nan	nan	nan	nan	nan	nan	nan	nan	
